<svg id="6f7cf843-e2f2-457c-bfc9-5239154b32d7" data-name="Layer 1" xmlns="http://www.w3.org/2000/svg" viewBox="0 0 260 64"><defs><style>.\39 4b63f0a-3bd4-4e86-a5d1-15533ff1d612{fill:#f60;}.\34 9a49198-0f14-44a8-a5cd-11cbc5d07e3e{fill:#3c6;}.d76b7886-ad85-439d-b8d7-d53a0439d9d8{fill:#9b783c;}</style></defs><title>avocado</title><path class="94b63f0a-3bd4-4e86-a5d1-15533ff1d612" d="M71.11,8.13H76L87.08,56h-2.4L74.22,10.86H72.8L62.34,56H60ZM66.3,56H63.9l3.63-15.65h12L83.12,56H80.78L77.67,42.69H69.35Zm7.21-41.37L79.1,38.85H67.86Zm0,10.19L70.78,36.51h5.46Z"/><path class="94b63f0a-3bd4-4e86-a5d1-15533ff1d612" d="M98.45,53.47h1.3L111.12,8.13h2.4L101.51,56H96.7L84.81,8.13h2.28Zm.65-13.19,8.12-32.15h2.28L99.1,49.76,88.71,8.13h2.4Z"/><path class="94b63f0a-3bd4-4e86-a5d1-15533ff1d612" d="M140.49,42.23c0,4.29-.91,7.53-2.73,9.81a9.38,9.38,0,0,1-3,2.53,11.44,11.44,0,0,1-5.58,1.3c-4.68,0-7.28-2.08-8.64-3.83-1.82-2.28-2.73-5.52-2.73-9.81V21.58c0-4.23.91-7.47,2.73-9.81,1.36-1.76,4-3.77,8.64-3.77s7.27,2,8.63,3.77c1.82,2.34,2.73,5.58,2.73,9.81Zm-2.27-20.65c0-7.34-3.12-11.31-9.09-11.31s-9.1,4-9.1,11.31V42.23c0,7.34,3.19,11.37,9.1,11.37s9.09-4,9.09-11.37Zm-1.56,20.65c0,6.56-2.53,9.81-7.53,9.81s-7.54-3.25-7.54-9.81V21.58q0-5.07,2-7.41c1.17-1.56,3-2.34,5.59-2.34s4.41.78,5.58,2.34,1.95,4,1.95,7.41Zm-2.27-20.65c0-3.71-.85-5.66-1.95-6.57a5,5,0,0,0-3.31-.9,4.85,4.85,0,0,0-3.32.9c-1.1.91-2,2.86-2,6.57V42.23c0,3.83.85,5.65,2,6.56a4.89,4.89,0,0,0,3.32,1,5.06,5.06,0,0,0,3.31-1c1.1-.91,1.95-2.73,1.95-6.56Z"/><path class="94b63f0a-3bd4-4e86-a5d1-15533ff1d612" d="M169.8,24.82h-2.34V21.77c0-7.47-3.05-11.3-9-11.3a8.36,8.36,0,0,0-6.82,2.86c-1.49,2-2.27,4.8-2.27,8.44V42.36c0,4.68,1.23,7.6,3,9.22a8.77,8.77,0,0,0,6.1,2.15,8.63,8.63,0,0,0,6-2.15c1.76-1.62,3-4.54,3-9.22V39.24h2.34v3.12c0,4.22-.91,7.47-2.79,9.81-1.37,1.75-3.9,3.83-8.58,3.83a11.16,11.16,0,0,1-5.52-1.3,9.84,9.84,0,0,1-3.12-2.53c-1.81-2.28-2.72-5.52-2.72-9.81V21.77c0-4.22.91-7.53,2.72-9.81a11,11,0,0,1,3.12-2.6,12,12,0,0,1,5.52-1.23c4.68,0,7.21,2.08,8.58,3.83,1.88,2.34,2.79,5.59,2.79,9.81Zm-3.83,0h-2.34V21.77c0-3.7-.84-5.65-1.88-6.56a5,5,0,0,0-3.32-.91,4.8,4.8,0,0,0-3.31.91c-1.1.91-2,2.86-2,6.56V42.36c0,2.79.52,4.81,1.5,6,.45.72,1.42,1.49,3.76,1.49s3.25-.77,3.77-1.49c1-1.23,1.43-3.25,1.43-6V39.24H166v3.12c0,6.56-2.54,9.81-7.54,9.81s-7.53-3.25-7.53-9.81V21.77c0-6.56,2.53-9.81,7.53-9.81S166,15.21,166,21.77Z"/><path class="94b63f0a-3bd4-4e86-a5d1-15533ff1d612" d="M185.39,8.13h4.87L201.37,56H199L188.51,10.86h-1.43L176.62,56h-2.34ZM180.58,56h-2.4l3.64-15.65h12L197.4,56h-2.33L192,42.69h-8.31Zm7.21-41.37,5.59,24.22H182.14Zm0,10.19-2.72,11.69h5.45Z"/><path class="94b63f0a-3bd4-4e86-a5d1-15533ff1d612" d="M228.79,42.17c0,8.76-3.9,13.83-12.15,13.83H207.1V53.73h9.54c3.32,0,5.79-1,7.54-3q2.34-2.93,2.34-8.57V22c0-7.53-3.19-11.56-9.88-11.56H207.1V8.13h9.54c4.1,0,7.21,1.3,9.29,3.9,1.89,2.27,2.86,5.65,2.86,10ZM207.1,12h2.27V52.17H207.1Zm3.83,40.21V12h5.71c2.93,0,5.07.85,6.31,2.47s2,4.16,2,7.6V42.17c0,3.44-.65,6-2,7.59s-3.38,2.41-6.31,2.41ZM213.2,14.3V49.89h3.44c1.56,0,3.06-.13,4.16-1.16s1.82-3,1.82-6.56V22c0-3.57-.78-5.52-1.82-6.56s-2.6-1.17-4.16-1.17Z"/><path class="94b63f0a-3bd4-4e86-a5d1-15533ff1d612" d="M258.29,42.23c0,4.29-.91,7.53-2.72,9.81a9.54,9.54,0,0,1-3.06,2.53,11.41,11.41,0,0,1-5.58,1.3c-4.68,0-7.28-2.08-8.64-3.83-1.82-2.28-2.73-5.52-2.73-9.81V21.58c0-4.23.91-7.47,2.73-9.81,1.36-1.76,4-3.77,8.64-3.77s7.27,2,8.64,3.77c1.81,2.34,2.72,5.58,2.72,9.81ZM256,21.58c0-7.34-3.12-11.31-9.09-11.31s-9.1,4-9.1,11.31V42.23c0,7.34,3.19,11.37,9.1,11.37s9.09-4,9.09-11.37Zm-1.56,20.65c0,6.56-2.53,9.81-7.53,9.81s-7.54-3.25-7.54-9.81V21.58q0-5.07,2-7.41c1.17-1.56,3-2.34,5.59-2.34s4.41.78,5.58,2.34,2,4,2,7.41Zm-2.27-20.65c0-3.71-.85-5.66-1.95-6.57a5,5,0,0,0-3.31-.9,4.82,4.82,0,0,0-3.31.9c-1.11.91-2,2.86-2,6.57V42.23c0,3.83.84,5.65,2,6.56a4.85,4.85,0,0,0,3.31,1,5,5,0,0,0,3.31-1c1.1-.91,1.95-2.73,1.95-6.56Z"/><path class="49a49198-0f14-44a8-a5cd-11cbc5d07e3e" d="M6.54,6.54A21.54,21.54,0,0,1,22.38,0,21.56,21.56,0,0,1,38.23,6.54a21.56,21.56,0,0,1,6.54,15.84,30.07,30.07,0,0,1-2.33,10.67,65.87,65.87,0,0,1-5.63,11.27q-3.31,5.26-6.54,9.84c-2.15,3.06-4,5.48-5.48,7.29L22.38,64,20,61.22q-1.5-1.72-5.41-6.91A115.89,115.89,0,0,1,7.74,44.24a71.8,71.8,0,0,1-5.34-11A30.4,30.4,0,0,1,0,22.38,21.56,21.56,0,0,1,6.54,6.54Z"/><path class="d76b7886-ad85-439d-b8d7-d53a0439d9d8" d="M16.72,28.05a7.71,7.71,0,0,0,5.66,2.33,8,8,0,0,0,8-8,8,8,0,0,0-8-8,8,8,0,0,0-8,8A7.72,7.72,0,0,0,16.72,28.05Z"/></svg>