<?xml version="1.0" encoding="utf-8"?>
<!-- Generator: Adobe Illustrator 22.1.0, SVG Export Plug-In . SVG Version: 6.00 Build 0)  -->
<svg version="1.1" id="Layer_1" xmlns="http://www.w3.org/2000/svg" xmlns:xlink="http://www.w3.org/1999/xlink" x="0px" y="0px"
	 viewBox="0 0 256 256" style="enable-background:new 0 0 256 256;" xml:space="preserve">
<style type="text/css">
	.st0{fill:#FFFFFF;}
</style>
<g>
	<path class="st0" d="M188.9,81.9c-1.4-3.6-3.1-6.2-5.9-9c-2.7-2.7-5.4-4.5-9-5.9c-10.2-4.1-34.7-3.1-46.1-3.1S92.1,62.9,81.8,67
		c-3.6,1.4-6.2,3.1-9,5.9c-2.7,2.8-4.4,5.5-5.8,9c-4.1,10.2-3.1,34.7-3.1,46.1s-0.9,35.8,3.1,46.1c1.4,3.6,3.1,6.2,5.9,9
		c2.7,2.7,5.4,4.5,9,5.9c10.2,4.1,34.7,3.1,46.1,3.1c11.4,0,35.8,0.9,46.1-3.1c3.6-1.4,6.2-3.1,9-5.9c2.7-2.7,4.5-5.4,5.9-9
		c4.1-10.2,3.1-34.7,3.1-46.1S193,92.2,188.9,81.9z M128,168.1c-22.2,0-40.1-17.9-40.1-40.1s17.9-40.1,40.1-40.1
		s40.1,17.9,40.1,40.1S150.2,168.1,128,168.1z M169.7,95.7c-5.2,0-9.4-4.1-9.4-9.4c0-5.2,4.1-9.4,9.4-9.4c5.2,0,9.4,4.1,9.4,9.4
		S174.9,95.7,169.7,95.7z"/>
	<path class="st0" d="M128,102c-14.4,0-26,11.7-26,26c0,14.4,11.7,26,26,26s26-11.7,26-26C154,113.6,142.4,102,128,102z"/>
	<path class="st0" d="M0,0v256h256V0H0z M205.6,160.3c-0.6,12.5-3.4,23.6-12.6,32.7s-20.2,12-32.7,12.6c-10.8,0.6-21.5,0.5-32.3,0.5
		s-21.5,0.1-32.3-0.5C83.2,205,72.1,202.1,63,193s-12-20.2-12.6-32.7c-0.6-10.8-0.5-21.5-0.5-32.3s-0.1-21.5,0.5-32.3
		C51,83.2,53.9,72.1,63,63s20.2-12,32.7-12.6c10.8-0.6,21.5-0.5,32.3-0.5s21.5-0.1,32.3,0.5C172.8,51,183.9,53.9,193,63
		s12,20.2,12.6,32.7c0.6,10.8,0.5,21.5,0.5,32.3S206.2,149.5,205.6,160.3z"/>
</g>
</svg>
