<?xml version="1.0" encoding="utf-8"?>
<!-- Generator: Adobe Illustrator 22.1.0, SVG Export Plug-In . SVG Version: 6.00 Build 0)  -->
<svg version="1.1" id="linkedin" xmlns="http://www.w3.org/2000/svg" xmlns:xlink="http://www.w3.org/1999/xlink" x="0px" y="0px"
	 viewBox="0 0 256 256" style="enable-background:new 0 0 256 256;" xml:space="preserve">
<style type="text/css">
	.st0{fill:#FFFFFF;}
</style>
<path class="st0" d="M0,0v256h256V0H0z M94.9,188H70v-80.1h24.9V188z M82.4,96.9c-8,0-14.4-6.5-14.4-14.4C68,74.5,74.5,68,82.4,68
	c7.9,0,14.4,6.5,14.4,14.4C96.8,90.4,90.3,96.9,82.4,96.9z M188,188h-24.9v-39c0-9.3-0.2-21.2-12.9-21.2c-13,0-15,10.1-15,20.6V188
	h-24.9v-80.1h23.9v11h0.3c3.3-6.3,11.5-12.9,23.5-12.9c25.2,0,29.8,16.6,29.8,38.2V188z"/>
</svg>
