<?xml version="1.0" encoding="utf-8"?>
<!-- Generator: Adobe Illustrator 22.1.0, SVG Export Plug-In . SVG Version: 6.00 Build 0)  -->
<svg version="1.1" id="twitter" xmlns="http://www.w3.org/2000/svg" xmlns:xlink="http://www.w3.org/1999/xlink" x="0px" y="0px"
	 viewBox="0 0 256 256" style="enable-background:new 0 0 256 256;" xml:space="preserve">
<style type="text/css">
	.st0{fill:#FFFFFF;}
</style>
<path class="st0" d="M0,0v256h256V0H0z M191.6,95.4c0.1,1.4,0.1,2.8,0.1,4.2c0,43.3-33,93.4-93.4,93.4c-17.9,0-35.3-5.1-50.4-14.7
	c2.6,0.3,5.2,0.4,7.8,0.4c14.8,0,29.1-4.9,40.8-14.1c-14-0.3-26.4-9.4-30.7-22.8c4.9,1,10,0.8,14.8-0.6
	c-15.4-3.1-26.4-16.6-26.4-32.2c0-0.1,0-0.3,0-0.4c4.6,2.6,9.7,4,14.9,4.1C54.8,103.2,50.4,84,59.1,69.1
	c16.6,20.5,41.3,33,67.6,34.3C124,92,127.7,80,136.2,72c13.2-12.5,34-11.8,46.5,1.4c7.4-1.4,14.4-4.1,20.9-7.9
	c-2.4,7.6-7.6,14.1-14.4,18.2c6.5-0.8,12.9-2.6,18.9-5.2C203.6,85,198,90.8,191.6,95.4z"/>
</svg>
